<svg width="38.000000" height="38.000000" viewBox="0 0 38 38" fill="none" xmlns="http://www.w3.org/2000/svg" xmlns:xlink="http://www.w3.org/1999/xlink">
	<desc>
			Created with Pixso.
	</desc>
	<defs/>
	<g opacity="0.000000">
		<rect id="guard" width="38.000000" height="38.000000" fill="#FFFFFF" fill-opacity="1.000000"/>
	</g>
	<path id="logo__COLOR:main-1" d="M0 12.6666C0 8.23291 0 6.01599 0.862793 4.32263C1.62207 2.83301 2.83301 1.62183 4.32275 0.862915C6.01611 0 8.23291 0 12.6665 0L25.3335 0C29.7671 0 31.9839 0 33.6772 0.862915C35.167 1.62183 36.3779 2.83301 37.1372 4.32263C38 6.01599 38 8.23291 38 12.6666L38 25.3334C38 29.7671 38 31.984 37.1372 33.6774C36.3779 35.167 35.167 36.3782 33.6772 37.1371C31.9839 38 29.7671 38 25.3335 38L12.6665 38C8.23291 38 6.01611 38 4.32275 37.1371C2.83301 36.3782 1.62207 35.167 0.862793 33.6774C0 31.984 0 29.7671 0 25.3334L0 12.6666Z" fill="#3DDC84" fill-opacity="1.000000" fill-rule="nonzero"/>
	<circle id="logo__COLOR:logo-2" cx="19.000000" cy="19.000000" r="11.000000" fill="#FFFFFF" fill-opacity="1.000000"/>
	<path id="logo__COLOR:main-1" d="M15.1538 19C15.1538 21.1241 16.876 22.8462 19 22.8462C21.124 22.8462 22.8462 21.1241 22.8462 19L25 19C25 22.3137 22.3135 25 19 25C15.6865 25 13 22.3137 13 19L15.1538 19Z" fill="#3DDC84" fill-opacity="1.000000" fill-rule="evenodd"/>
</svg>
