<svg width="14.000000" height="12.000000" viewBox="0 0 14 12" fill="none" xmlns="http://www.w3.org/2000/svg" xmlns:xlink="http://www.w3.org/1999/xlink">
	<desc>
			Created with Pixso.
	</desc>
	<defs/>
	<path id="icon__COLOR:stroke-2" d="M6.8877 1.43103C6.13721 0.724487 5.15039 0 3.81836 0C1.59082 0 0 1.78467 0 4C0 5.10767 0.445312 6.09229 1.27295 6.76929L7 12L12.7271 6.76929C13.4907 6.03076 14 5.10767 14 4C14 1.78467 12.4092 0 10.1816 0C8.8252 0 7.82715 0.693359 7.07178 1.46423C7.04785 1.48889 7.02393 1.51367 7 1.53845C6.96289 1.50281 6.92578 1.46692 6.8877 1.43103ZM12.042 6.04089Q12.8022 5.30115 12.959 4.44995Q13 4.22876 13 4Q13 3.44189 12.8335 2.93921Q12.8101 2.86853 12.7832 2.79895Q12.6216 2.37891 12.3564 2.04016Q12.2803 1.94287 12.1958 1.85217Q11.9771 1.61841 11.7173 1.44666Q11.5283 1.3219 11.3179 1.22986Q11.2383 1.19519 11.1572 1.16577Q10.6992 1 10.1816 1Q9.91016 1 9.64844 1.0509Q9.22559 1.13318 8.8291 1.34839Q8.27979 1.646 7.72314 2.22888L7.02832 2.95703L6.30469 2.25732Q5.68408 1.65723 5.16113 1.36597Q4.59863 1.05273 4.01514 1.00757Q3.91699 1 3.81836 1Q3.30078 1 2.84277 1.16577Q2.76172 1.19519 2.68213 1.22986Q2.47168 1.3219 2.28271 1.44678Q2.02295 1.61841 1.8042 1.85217Q1.71973 1.94275 1.64355 2.04004Q1.37842 2.37891 1.2168 2.79895Q1.18994 2.86853 1.1665 2.93921Q1 3.44202 1 4Q1 4.58459 1.2124 5.07776Q1.22363 5.104 1.23535 5.13Q1.33057 5.3374 1.45996 5.52014Q1.64697 5.78333 1.90576 5.99536L1.92725 6.01257L7 10.6458L12.042 6.04089Z" fill="#424242" fill-opacity="1.000000" fill-rule="evenodd"/>
</svg>
